HIERARCHY
ROOT Pelvis
{
	OFFSET 0.32 0 0
	CHANNELS 6 Xposition Yposition Zposition Zrotation Xrotation Yrotation
	JOINT SpineShoulder
	{
		OFFSET 0 6.740009 0
		CHANNELS 3 Zrotation Xrotation Yrotation
		JOINT Neck
		{
			OFFSET 0 2.640004 0
			CHANNELS 3 Zrotation Xrotation Yrotation
			End Site
			{
				OFFSET 0 4.719998 0
			}
		}
		JOINT ShoulderLeft
		{
			OFFSET 3.340001 0.6799955 0
			CHANNELS 3 Zrotation Xrotation Yrotation
			JOINT ElbowLeft
			{
				OFFSET 5.307964 0 0
				CHANNELS 3 Zrotation Xrotation Yrotation
				End Site
				{
					OFFSET 4.786495 0 0
				}
			}
		}
		JOINT ShoulderRight
		{
			OFFSET -3.300001 0.6799955 0
			CHANNELS 3 Zrotation Xrotation Yrotation
			JOINT ElbowRight
			{
				OFFSET -5.307964 0 0
				CHANNELS 3 Zrotation Xrotation Yrotation
				End Site
				{
					OFFSET -4.786495 0 0
				}
			}
		}
	}
	JOINT HipLeft
	{
		OFFSET 2.560001 -1.599997 0
		CHANNELS 3 Zrotation Xrotation Yrotation
		JOINT KneeLeft
		{
			OFFSET 0 -8.508625 0
			CHANNELS 3 Zrotation Xrotation Yrotation
			End Site
			{
				OFFSET 0 -7.880188 0
			}
		}
	}
	JOINT HipRight
	{
		OFFSET -2.560001 -1.599997 0
		CHANNELS 3 Zrotation Xrotation Yrotation
		JOINT KneeRight
		{
			OFFSET 0 -8.508625 0
			CHANNELS 3 Zrotation Xrotation Yrotation
			End Site
			{
				OFFSET 0 -7.880188 0
			}
		}
	}
}
MOTION
Frames: 19
Frame Time: 0.03333334
0 0 0 -1.022763 10.9039 115.1812 -356.1621 5.851848 358.2338 -2.758195 3.583104 359.5861 -245.4818 359.1722 198.5727 -119.338 2.91107 132.8146 -109.5359 40.52588 172.3756 -210.9981 348.4374 180.0873 -356.5192 354.795 0.5172288 -351.0382 13.47745 356.5976 -357.2277 351.2626 0.9157168 -357.9435 16.50414 357.6124
0 0 0 -359.4801 11.14536 125.7885 -356.2385 5.296082 0.3128612 -359.8673 5.381387 359.4051 -238.3066 333.3178 196.7598 -116.987 36.64335 123.248 -91.79047 69.5328 157.2499 -216.7498 333.2195 165.2889 -351.4611 349.5167 1.080944 -357.341 15.56205 356.9025 -352.6554 352.8673 0.5624182 -0.9485072 17.14997 357.8589
0 0 0 -0.9512541 10.53825 126.8288 -358.9298 5.470533 359.8147 -358.5482 1.836212 359.8135 -237.8675 328.802 197.4717 -118.7297 39.37391 120.4656 -96.10025 66.7652 161.0355 -220.5128 341.7157 174.5179 -353.8005 345.6082 1.639531 -354.368 16.78045 356.0118 -353.7485 350.6488 0.9545132 -1.035743 18.4485 357.8662
0 0 0 -1.208607 10.18759 131.8085 -357.1593 5.14643 2.051782 -359.6189 5.254383 359.464 -229.5626 324.2538 202.0449 -89.8127 39.44586 81.8778 -22.1851 75.34351 85.89459 -227.8763 4.832718 159.5387 -348.3461 338.9251 3.19406 -1.723322 21.73279 357.097 -355.8549 343.3277 1.64528 -357.3634 26.11178 356.1533
0 0 0 -1.022192 10.20343 133.7429 -357.9653 3.119769 2.547723 -357.525 6.154027 359.2513 -225.5337 323.3803 207.0503 -91.81017 49.49011 96.58521 -358.0277 64.49773 59.97491 -216.5055 359.1665 143.5728 -352.2843 337.2174 2.806728 -357.866 30.62862 354.9799 -355.0479 351.6893 0.6798283 -3.201333 15.61194 359.0786
0 0 0 -0.005969066 11.04031 136.45 -2.829535 11.26982 7.657359 -352.5351 0.6795177 0.09455188 -204.5187 278.6057 223.6639 -64.54941 65.25122 59.50964 -336.2892 55.23505 40.75849 -224.1177 13.40158 149.3464 -357.1642 340.054 1.66579 -348.7109 24.31564 352.8513 -359.7606 357.1542 0.1791606 -358.6909 14.58854 358.7149
0 0 0 -0.9373922 10.74516 142.3888 -2.844019 11.34843 10.04073 -354.4905 359.5128 0.1688833 -81.23184 285.1825 344.6991 -22.45441 49.39819 12.28018 -320.8502 26.32921 30.93769 -217.189 353.0134 129.263 -358.6058 332.4553 2.077311 -346.9678 25.0985 351.5954 -359.0369 355.6357 0.2497445 -359.9758 16.9663 358.7769
0 0 0 -0.258601 12.16496 147.9975 -1.257443 10.42874 9.483025 -354.2138 1.188137 359.8504 -74.60656 297.4888 352.9874 -15.29559 35.31187 2.459308 -306.0971 5.404109 30.60489 -210.6871 350.0052 114.8278 -4.255812 333.5367 0.9704117 -343.725 23.98563 351.2635 -356.4547 355.0169 0.1301083 -0.3140824 20.59299 358.2713
0 0 0 -0.3680348 11.66588 148.7236 -2.536347 11.16534 10.57165 -353.4402 359.9373 0.04344005 -69.27486 303.8377 356.5365 -16.1028 26.32311 357.2363 -306.1343 355.0182 33.57377 -212.4218 334.8431 114.7534 -0.6610075 328.2535 1.728568 -344.5738 25.29794 350.2505 -355.8598 354.7423 0.1299262 -0.9511895 18.70877 358.5689
0 0 0 -1.347064 12.34657 151.2787 -3.327533 11.97912 8.474216 -350.936 1.950815 359.8734 -72.87617 302.4603 352.5742 -10.3963 21.25743 351.3871 -307.5739 352.8952 34.02491 -203.5202 340.9254 109.6286 -3.826453 329.0871 1.288939 -348.3687 11.98434 354.3171 -356.0159 352.2254 0.4048075 -0.6222601 18.89521 358.384
0 0 0 -0.5904578 12.33689 148.6318 -3.560214 10.34325 9.450141 -350.784 3.935566 359.5312 -72.28654 296.5119 351.7716 -11.70426 25.40239 353.2825 -305.0638 350.4662 36.95854 -194.8865 344.5104 112.1701 -359.4522 322.8895 2.546828 -343.1382 26.15881 348.1942 -355.5535 345.8158 1.034499 -356.4383 27.12216 355.8271
0 0 0 -0.555169 12.28822 149.4923 -2.070367 10.40397 9.60904 -353.8263 3.824069 359.6024 -65.31398 300.8688 357.6802 -21.54366 25.19448 0.09799454 -302.6331 346.1692 38.31032 -193.5302 340.648 108.5742 -356.695 327.8529 2.671442 -346.8435 21.48043 351.1437 -354.5989 351.8731 0.3788469 -2.571806 21.04312 358.6677
0 0 0 -1.194517 12.57097 151.001 -3.218676 9.127382 11.03927 -355.2761 2.595956 359.7276 -68.40546 308.3843 357.298 -14.70773 24.37436 358.6024 -294.8436 338.8462 40.45864 -199.5193 330.426 107.9499 -0.1336866 337.3258 1.450409 -349.9875 16.71859 354.7513 -0.6704773 357.1499 0.2234081 -352.8263 15.76422 357.3051
0 0 0 -0.8178164 11.34766 154.1973 -1.618079 12.34333 8.786672 -354.6555 0.09156357 0.07754758 -69.40084 311.7253 354.8741 -19.79695 16.52424 355.6911 -298.7027 342.9751 37.50798 -199.9674 341.8932 104.6985 -358.5635 336.903 1.358767 -354.996 22.64531 356.3414 -358.4947 357.9931 -0.003747917 -357.8955 15.46675 358.5335
0 0 0 -0.8433366 11.25947 154.7747 -0.8697709 9.808908 8.267114 -355.2574 0.7949806 359.9056 -74.5759 308.398 351.5016 -21.4191 20.97754 1.088565 -300.6388 351.1204 30.91998 -212.0819 337.3622 100.7443 -359.8344 340.6871 0.9784436 -355.054 22.98858 356.7365 -358.6951 358.4648 359.98 -358.2894 12.44383 358.9014
0 0 0 -359.9773 11.4289 154.1802 -0.1106437 6.879104 7.160344 -354.6678 3.990054 359.475 -79.85471 303.0826 349.4632 -16.68889 24.22672 359.2112 -302.1347 356.7218 27.93761 -213.4889 338.2625 105.8852 -357.2026 342.8218 0.9352673 -355.7044 20.3199 356.925 -357.0295 354.1931 0.1358236 -358.123 15.13139 358.4516
0 0 0 -0.3377195 11.37912 161.8107 -0.6200824 8.225894 4.558574 -355.0182 1.566703 359.7711 -81.03355 313.5214 347.5542 -22.36229 15.15801 0.6818855 -300.8357 2.065501 18.49998 -233.2567 336.2314 97.51266 -1.10771 339.1184 0.626714 -356.9466 26.23981 357.9452 -357.64 347.1768 0.4863675 -357.2321 26.2813 357.4405
0 0 0 -0.006639368 10.7608 154.4529 -359.5246 4.212578 2.067971 -357.5427 4.043532 359.6182 -138.0853 286.5584 289.0447 -45.05088 26.74731 25.67007 -308.264 23.5356 20.65776 -225.2926 339.1569 111.1216 -357.0013 340.8484 1.053609 -0.6930634 23.91784 358.7928 -355.8229 345.9087 0.7464099 -359.1119 22.6695 357.9495
0 0 0 -0.2049382 10.94914 155.5034 -356.7774 0.2712651 359.2973 -1.006325 8.745616 359.5474 -192.4758 303.7574 236.5468 -53.8348 14.18961 46.35234 -307.5813 26.53035 19.2937 -229.4026 330.269 109.6247 -355.9418 332.5597 1.83928 -2.234188 32.44069 359.04 -356.821 335.649 1.463157 -354.3187 33.59634 354.6873
